<svg width="150" height="150" viewBox="0 0 150 150" fill="none" xmlns="http://www.w3.org/2000/svg">
<path d="M32.1875 117.812C27.9167 112.812 24.6083 107.213 22.2625 101.013C19.9208 94.8167 18.75 88.2292 18.75 81.25C18.75 65.625 24.2188 52.3438 35.1562 41.4062C46.0938 30.4688 59.375 25 75 25H76.25L66.25 15L75 6.25L100 31.25L75 56.25L66.0938 47.3438L75.9375 37.5H75C62.9167 37.5 52.6042 41.7708 44.0625 50.3125C35.5208 58.8542 31.25 69.1667 31.25 81.25C31.25 86.5625 32.1083 91.5625 33.825 96.25C35.5458 100.938 37.9687 105.156 41.0937 108.906L32.1875 117.812ZM68.75 115.625C68.75 113.229 67.9437 110.86 66.3312 108.519C64.7146 106.173 62.9167 103.725 60.9375 101.175C58.9583 98.6208 57.1604 95.9625 55.5438 93.2C53.9313 90.4417 53.125 87.5 53.125 84.375C53.125 78.3333 55.2604 73.1771 59.5312 68.9062C63.8021 64.6354 68.9583 62.5 75 62.5C81.0417 62.5 86.1979 64.6354 90.4688 68.9062C94.7396 73.1771 96.875 78.3333 96.875 84.375C96.875 87.5 96.0687 90.4417 94.4563 93.2C92.8396 95.9625 91.0417 98.6208 89.0625 101.175C87.0833 103.725 85.2854 106.173 83.6687 108.519C82.0563 110.86 81.25 113.229 81.25 115.625H68.75ZM68.75 131.25V121.875H81.25V131.25H68.75ZM117.812 117.812L108.906 108.906C112.031 105.156 114.452 100.938 116.169 96.25C117.89 91.5625 118.75 86.5625 118.75 81.25C118.75 74.375 117.317 67.9958 114.45 62.1125C111.588 56.225 107.656 51.3021 102.656 47.3438L111.562 38.4375C117.604 43.6458 122.396 49.9208 125.938 57.2625C129.479 64.6083 131.25 72.6042 131.25 81.25C131.25 88.2292 130.079 94.8167 127.737 101.013C125.392 107.213 122.083 112.812 117.812 117.812Z" fill="#265773"/>
</svg>
