<svg width="150" height="150" viewBox="0 0 150 150" fill="none" xmlns="http://www.w3.org/2000/svg">
<path d="M25 131.25H85.125C88.7317 131.252 92.2961 130.473 95.5728 128.965C98.8495 127.458 101.761 125.259 104.106 122.519L135.994 85.3188C136.661 84.5412 137.128 83.6113 137.351 82.611C137.575 81.6108 137.549 80.5709 137.276 79.5829C137.003 78.595 136.492 77.6893 135.786 76.9457C135.081 76.2021 134.203 75.6434 133.231 75.3188L120.931 71.2188C117.958 70.2525 114.793 70.0339 111.716 70.5822C108.638 71.1305 105.744 72.4289 103.287 74.3626L83.3812 90.2813L79.525 82.5626C77.4591 78.4018 74.2694 74.9027 70.3171 72.4615C66.3648 70.0203 61.8079 68.7346 57.1625 68.7501H25C18.1062 68.7501 12.5 74.3563 12.5 81.2501V118.75C12.5 125.644 18.1062 131.25 25 131.25ZM25 81.2501H57.1625C61.9312 81.2501 66.2125 83.8938 68.3438 88.1563L71.1375 93.7501H43.75V106.25H81.3375C82.2991 106.237 83.2446 106.002 84.1 105.563L84.1187 105.556L84.1438 105.544H84.1625L84.175 105.538H84.2L84.2062 105.531C84.2625 105.55 84.225 105.525 84.225 105.525C84.2875 105.525 84.2375 105.519 84.2375 105.519H84.2438L84.2562 105.513L84.275 105.506L84.2875 105.5L84.3 105.494L84.3187 105.488L84.3313 105.481C84.35 105.481 84.3375 105.475 84.3438 105.475L84.3625 105.463L84.375 105.456L84.3875 105.45L84.4062 105.444L84.4187 105.438H84.425L84.4375 105.431H84.4437L84.4562 105.425L84.4688 105.419C84.525 105.413 84.4875 105.413 84.4875 105.413L84.5 105.406C84.7408 105.261 84.9706 105.098 85.1875 104.919L111.1 84.1876C112.737 82.8876 114.994 82.4813 116.975 83.1438L120.456 84.3063L94.625 114.45C93.4368 115.799 91.9753 116.88 90.3374 117.622C88.6996 118.363 86.9228 118.748 85.125 118.75H25V81.2501ZM100 12.5001H99.8937C98.875 12.5126 93.6062 12.7438 87.5 16.9063C81.5563 12.8563 76.4125 12.5313 75.2 12.5063L75.0125 12.5001H74.9875C69.9813 12.5001 65.2687 14.4563 61.7437 17.9876C58.2062 21.5313 56.25 26.2376 56.25 31.2501C56.25 36.2626 58.2062 40.9688 61.6312 44.4001L82.9688 66.8126C83.5558 67.422 84.2599 67.9066 85.0387 68.2375C85.8175 68.5683 86.6551 68.7386 87.5013 68.738C88.3475 68.7374 89.1849 68.566 89.9633 68.2341C90.7417 67.9022 91.445 67.4165 92.0312 66.8063L113.256 44.5063C116.8 40.9688 118.75 36.2626 118.75 31.2501C118.75 26.2376 116.794 21.5313 113.262 17.9938C111.527 16.2472 109.462 14.8623 107.188 13.9193C104.914 12.9763 102.475 12.4939 100.013 12.5001H100ZM106.25 31.2501C106.25 32.9188 105.6 34.4876 104.306 35.7813L87.5 53.4376L70.5813 35.6688C69.4 34.4876 68.75 32.9188 68.75 31.2501C68.75 29.5813 69.4 28.0126 70.5875 26.8251C71.7177 25.6754 73.2567 25.0194 74.8688 25.0001C75.025 25.0063 78.0062 25.2001 81.5375 28.0313C82.0437 28.4376 82.5563 28.9001 83.0813 29.4188L87.5 33.8376L91.9187 29.4188C92.4437 28.9001 92.9563 28.4376 93.4625 28.0313C96.7688 25.3751 99.5625 25.0438 100.038 25.0063C100.852 25.0062 101.659 25.1674 102.411 25.4806C103.163 25.7938 103.845 26.2529 104.419 26.8313C105.6 28.0126 106.25 29.5813 106.25 31.2501Z" fill="#265773"/>
</svg>
