<svg width="150" height="150" viewBox="0 0 150 150" fill="none" xmlns="http://www.w3.org/2000/svg">
<path d="M146.25 121.875H142.5C136.397 121.875 131.766 119.408 129.354 116.631C127.268 114.226 124.746 112.5 121.908 112.5H118.088C115.249 112.5 112.727 114.226 110.641 116.631C108.234 119.408 103.603 121.875 97.5 121.875C91.3969 121.875 86.7656 119.408 84.3539 116.631C82.268 114.226 79.7461 112.5 76.9078 112.5H73.0875C70.2492 112.5 67.7273 114.226 65.6414 116.631C63.2344 119.408 58.6031 121.875 52.5 121.875C46.3969 121.875 41.7656 119.408 39.3539 116.631C37.268 114.226 34.7461 112.5 31.9078 112.5H28.0875C25.2492 112.5 22.7273 114.226 20.6414 116.631C18.2344 119.408 13.6031 121.875 7.5 121.875H3.75C1.67812 121.875 0 123.973 0 126.562V135.938C0 138.527 1.67812 140.625 3.75 140.625H7.5C16.5516 140.625 24.5438 137.054 30 131.297C35.4562 137.057 43.4484 140.625 52.5 140.625C61.5516 140.625 69.5437 137.054 75 131.297C80.4563 137.057 88.4484 140.625 97.5 140.625C106.552 140.625 114.544 137.054 120 131.297C125.456 137.057 133.448 140.625 142.5 140.625H146.25C148.322 140.625 150 138.527 150 135.938V126.562C150 123.973 148.322 121.875 146.25 121.875ZM52.5 112.5V84.375H97.5V112.5C101.981 112.5 104.733 110.695 105.56 109.74C107.709 107.262 110.06 105.539 112.5 104.446V37.5C112.5 32.332 115.866 28.125 120 28.125C124.134 28.125 127.5 32.332 127.5 37.5V42.1875C127.5 44.7773 129.178 46.875 131.25 46.875H138.75C140.822 46.875 142.5 44.7773 142.5 42.1875V37.5C142.5 21.9902 132.408 9.375 120 9.375C107.592 9.375 97.5 21.9902 97.5 37.5V65.625H52.5V37.5C52.5 32.332 55.8656 28.125 60 28.125C64.1344 28.125 67.5 32.332 67.5 37.5V42.1875C67.5 44.7773 69.1781 46.875 71.25 46.875H78.75C80.8219 46.875 82.5 44.7773 82.5 42.1875V37.5C82.5 21.9902 72.4078 9.375 60 9.375C47.5922 9.375 37.5 21.9902 37.5 37.5V104.443C39.9398 105.536 42.2906 107.262 44.4398 109.737C45.2672 110.695 48.0187 112.5 52.5 112.5Z" fill="#265773"/>
</svg>
