<svg width="150" height="150" viewBox="0 0 150 150" fill="none" xmlns="http://www.w3.org/2000/svg">
<path d="M75 137.5C75 137.5 125 100 125 59.375C125 33.4875 102.616 12.5 75 12.5C47.3844 12.5 25 33.4875 25 59.375C25 100 75 137.5 75 137.5Z" stroke="#265773" stroke-width="12" stroke-linejoin="round"/>
<path d="M65.625 43.75V93.75" stroke="#265773" stroke-width="12" stroke-linecap="round" stroke-linejoin="round"/>
<path d="M65.625 43.75H84.375C87.6902 43.75 90.8696 45.067 93.2138 47.4112C95.558 49.7554 96.875 52.9348 96.875 56.25C96.875 59.5652 95.558 62.7446 93.2138 65.0888C90.8696 67.433 87.6902 68.75 84.375 68.75H65.625V43.75Z" stroke="#265773" stroke-width="12" stroke-linejoin="round"/>
</svg>
