<svg width="150" height="150" viewBox="0 0 150 150" fill="none" xmlns="http://www.w3.org/2000/svg">
<path d="M126.567 131.25C125.839 131.251 125.121 131.082 124.47 130.756C123.819 130.431 123.253 129.958 122.817 129.375L118.997 124.284C115.377 119.459 112.835 113.913 111.541 108.022C110.247 102.13 110.232 96.0293 111.497 90.1313L118.402 57.9C119.386 53.3125 119.374 48.5671 118.367 43.9845C117.36 39.4018 115.382 35.0885 112.566 31.336L108.75 26.25C108.381 25.7576 108.112 25.1972 107.959 24.6009C107.806 24.0046 107.773 23.384 107.86 22.7746C107.947 22.1652 108.153 21.579 108.467 21.0493C108.78 20.5196 109.195 20.0569 109.687 19.6875C110.18 19.3182 110.74 19.0494 111.337 18.8967C111.933 18.7439 112.554 18.7101 113.163 18.7971C113.772 18.8842 114.359 19.0904 114.888 19.404C115.418 19.7177 115.881 20.1326 116.25 20.625L120.07 25.7156C123.689 30.5405 126.231 36.0853 127.525 41.9762C128.819 47.867 128.834 53.9668 127.57 59.8641L120.661 92.0953C119.677 96.6829 119.688 101.428 120.695 106.011C121.702 110.594 123.68 114.907 126.497 118.659L130.312 123.75C130.835 124.446 131.153 125.274 131.231 126.14C131.309 127.007 131.145 127.878 130.756 128.657C130.367 129.435 129.77 130.09 129.03 130.548C128.29 131.006 127.437 131.249 126.567 131.25ZM103.13 131.25C102.402 131.251 101.684 131.082 101.033 130.756C100.382 130.431 99.8158 129.958 99.3797 129.375L95.5594 124.284C91.9398 119.459 89.3973 113.913 88.1034 108.022C86.8096 102.13 86.7946 96.0293 88.0594 90.1313L94.9641 57.9C95.9482 53.3125 95.9365 48.5671 94.9298 43.9845C93.923 39.4018 91.9446 35.0885 89.1281 31.336L85.3125 26.25C84.9432 25.7576 84.6744 25.1972 84.5217 24.6009C84.3689 24.0046 84.3351 23.384 84.4221 22.7746C84.5092 22.1652 84.7154 21.579 85.029 21.0493C85.3427 20.5196 85.7575 20.0569 86.25 19.6875C86.7425 19.3182 87.3028 19.0494 87.8992 18.8967C88.4955 18.7439 89.116 18.7101 89.7254 18.7971C90.3348 18.8842 90.9211 19.0904 91.4507 19.404C91.9804 19.7177 92.4432 20.1326 92.8125 20.625L96.6328 25.7156C100.252 30.5405 102.794 36.0853 104.088 41.9762C105.382 47.867 105.397 53.9668 104.133 59.8641L97.2234 92.0953C96.2393 96.6829 96.251 101.428 97.2577 106.011C98.2645 110.594 100.243 114.907 103.059 118.659L106.875 123.75C107.397 124.446 107.715 125.274 107.793 126.14C107.872 127.007 107.707 127.878 107.319 128.657C106.93 129.435 106.332 130.09 105.592 130.548C104.853 131.006 104 131.249 103.13 131.25ZM79.6922 131.25C78.9643 131.251 78.2464 131.082 77.5954 130.756C76.9444 130.431 76.3783 129.958 75.9422 129.375L72.1219 124.284C68.5023 119.459 65.9598 113.913 64.6659 108.022C63.3721 102.13 63.3571 96.0293 64.6219 90.1313L71.5266 57.9C72.5107 53.3125 72.4991 48.5671 71.4923 43.9845C70.4855 39.4018 68.5071 35.0885 65.6906 31.336L61.875 26.25C61.5057 25.7576 61.2369 25.1972 61.0842 24.6009C60.9314 24.0046 60.8976 23.384 60.9846 22.7746C61.0717 22.1652 61.2779 21.579 61.5915 21.0493C61.9052 20.5196 62.32 20.0569 62.8125 19.6875C63.305 19.3182 63.8653 19.0494 64.4616 18.8967C65.058 18.7439 65.6785 18.7101 66.2879 18.7971C66.8973 18.8842 67.4836 19.0904 68.0133 19.404C68.5429 19.7177 69.0057 20.1326 69.375 20.625L73.1906 25.7156C76.8104 30.5401 79.3534 36.0848 80.648 41.9756C81.9426 47.8665 81.9587 53.9665 80.6953 59.8641L73.7859 92.0953C72.8018 96.6829 72.8134 101.428 73.8202 106.011C74.827 110.594 76.8054 114.907 79.6219 118.659L83.4375 123.75C83.9596 124.446 84.2776 125.274 84.356 126.14C84.4343 127.007 84.2699 127.878 83.8812 128.657C83.4924 129.435 82.8947 130.09 82.1549 130.548C81.415 131.006 80.5623 131.249 79.6922 131.25ZM56.2547 131.25C55.5268 131.251 54.8089 131.082 54.1579 130.756C53.5069 130.431 52.9408 129.958 52.5047 129.375L48.6844 124.284C45.0648 119.459 42.5223 113.913 41.2284 108.022C39.9346 102.13 39.9196 96.0293 41.1844 90.1313L48.0891 57.9C49.0732 53.3125 49.0616 48.5671 48.0548 43.9845C47.048 39.4018 45.0696 35.0885 42.2531 31.336L38.4375 26.25C38.0682 25.7576 37.7994 25.1972 37.6467 24.6009C37.4939 24.0046 37.4601 23.384 37.5471 22.7746C37.6342 22.1652 37.8404 21.579 38.154 21.0493C38.4677 20.5196 38.8825 20.0569 39.375 19.6875C39.8675 19.3182 40.4278 19.0494 41.0241 18.8967C41.6205 18.7439 42.241 18.7101 42.8504 18.7971C43.4598 18.8842 44.0461 19.0904 44.5758 19.404C45.1054 19.7177 45.5682 20.1326 45.9375 20.625L49.7578 25.7156C53.3768 30.5405 55.9189 36.0853 57.2127 41.9762C58.5065 47.867 58.5219 53.9668 57.2578 59.8641L50.3484 92.0953C49.3643 96.6829 49.3759 101.428 50.3827 106.011C51.3895 110.594 53.3679 114.907 56.1844 118.659L60 123.75C60.5221 124.446 60.8401 125.274 60.9185 126.14C60.9968 127.007 60.8324 127.878 60.4437 128.657C60.0549 129.435 59.4572 130.09 58.7174 130.548C57.9775 131.006 57.1248 131.249 56.2547 131.25ZM32.8172 131.25C32.0886 131.251 31.3697 131.083 30.7178 130.757C30.0659 130.432 29.4991 129.958 29.0625 129.375L25.2422 124.284C21.6226 119.459 19.0801 113.913 17.7863 108.022C16.4924 102.13 16.4774 96.0293 17.7422 90.1313L24.6516 57.9C25.6357 53.3125 25.6241 48.5671 24.6173 43.9845C23.6105 39.4018 21.6321 35.0885 18.8156 31.336L15 26.25C14.6307 25.7576 14.3619 25.1972 14.2092 24.6009C14.0564 24.0046 14.0226 23.384 14.1096 22.7746C14.2854 21.5439 14.9429 20.4334 15.9375 19.6875C16.9321 18.9416 18.1822 18.6213 19.4129 18.7971C20.6436 18.9729 21.7541 19.6305 22.5 20.625L26.3203 25.7156C29.9393 30.5405 32.4814 36.0853 33.7752 41.9762C35.069 47.867 35.0844 53.9668 33.8203 59.8641L26.9109 92.0953C25.9268 96.6829 25.9384 101.428 26.9452 106.011C27.952 110.594 29.9304 114.907 32.7469 118.659L36.5625 123.75C37.0846 124.446 37.4026 125.274 37.481 126.14C37.5593 127.007 37.3949 127.878 37.0062 128.657C36.6174 129.435 36.0197 130.09 35.2799 130.548C34.54 131.006 33.6873 131.249 32.8172 131.25V131.25Z" fill="#265773"/>
</svg>
