<svg width="150" height="150" viewBox="0 0 150 150" fill="none" xmlns="http://www.w3.org/2000/svg">
<path d="M33.45 38.7L37.5 55.95L33.45 73.125L48.525 82.425L57.75 97.5L75 93.45L92.25 97.5L101.475 82.425L116.55 73.125L112.5 55.95L116.55 38.7L101.55 29.4L92.25 14.325L75 18.45L57.825 14.4L48.45 29.4L33.45 38.7ZM75.075 86.25C67.1185 86.25 59.4879 83.0892 53.8618 77.4632C48.2357 71.8371 45.075 64.2064 45.075 56.25C45.075 48.2935 48.2357 40.6628 53.8618 35.0367C59.4879 29.4107 67.1185 26.25 75.075 26.25C91.575 26.25 105 39.675 105 56.175C105 72.825 91.575 86.25 75.075 86.25ZM74.925 78.75C62.475 78.75 52.5 68.7 52.5 56.25C52.5 43.875 62.475 33.75 74.925 33.75C87.375 33.75 97.5 43.875 97.5 56.25C97.5 68.7 87.375 78.75 74.925 78.75ZM103.725 87L94.125 103.8L78.525 100.275L97.5 144L108 127.5H126.75L103.725 87ZM45.975 87.525L55.35 104.4L71.325 100.575L52.5 144L42 127.5H23.25L45.975 87.525Z" fill="#265773"/>
</svg>
