<svg width="20" height="20" viewBox="0 0 20 20" fill="none" xmlns="http://www.w3.org/2000/svg">
<path d="M18.7463 20C8.08251 20.015 -0.0112383 11.825 1.17134e-05 1.25375C1.17134e-05 0.5625 0.560012 0 1.25001 0H4.55001C5.16876 0 5.69501 0.455 5.78626 1.0675C6.00389 2.53632 6.43116 3.96631 7.05501 5.31375L7.18376 5.59125C7.27025 5.77799 7.28885 5.98905 7.23637 6.18804C7.18388 6.38703 7.0636 6.56146 6.89626 6.68125C5.87376 7.41125 5.48376 8.88 6.28001 10.025C7.28249 11.4667 8.53369 12.7183 9.97501 13.7213C11.1213 14.5163 12.59 14.1263 13.3188 13.105C13.4384 12.9372 13.613 12.8164 13.8123 12.7637C14.0116 12.711 14.223 12.7296 14.41 12.8162L14.6863 12.9437C16.0338 13.5687 17.4638 13.9963 18.9325 14.2138C19.545 14.305 20 14.8313 20 15.4513V18.75C20 18.9143 19.9676 19.0769 19.9047 19.2286C19.8418 19.3804 19.7497 19.5182 19.6335 19.6343C19.5172 19.7504 19.3793 19.8425 19.2275 19.9052C19.0757 19.968 18.913 20.0002 18.7488 20H18.7463Z" fill="#F8F7F3"/>
</svg>
