<svg width="14" height="25" viewBox="0 0 14 25" fill="none" xmlns="http://www.w3.org/2000/svg">
<path d="M11.7395 0.294963L0.313007 11.6913C0.112318 11.8915 0 12.16 0 12.4395C0 12.719 0.112318 12.9875 0.313007 13.1877L11.7395 24.5883C11.833 24.6817 11.9447 24.7558 12.0682 24.8065C12.1917 24.8572 12.3243 24.8833 12.4583 24.8833C12.5923 24.8833 12.725 24.8572 12.8485 24.8065C12.9719 24.7558 13.0837 24.6817 13.1772 24.5883C13.3695 24.3969 13.4772 24.1399 13.4772 23.8723C13.4772 23.6047 13.3695 23.3477 13.1772 23.1563L2.43204 12.4395L13.1772 1.72487C13.3688 1.53353 13.4761 1.277 13.4761 1.00991C13.4761 0.74283 13.3688 0.4863 13.1772 0.294963C13.0837 0.201616 12.9719 0.127422 12.8485 0.0767612C12.725 0.0261006 12.5923 0 12.4583 0C12.3243 0 12.1917 0.0261006 12.0682 0.0767612C11.9447 0.127422 11.833 0.201616 11.7395 0.294963Z" fill="#414141"/>
</svg>
