<svg width="14" height="25" viewBox="0 0 14 25" fill="none" xmlns="http://www.w3.org/2000/svg">
<path d="M2.0182 24.5883L13.4447 13.192C13.6454 12.9918 13.7577 12.7233 13.7577 12.4438C13.7577 12.1643 13.6454 11.8958 13.4447 11.6956L2.0182 0.294998C1.92472 0.201651 1.81295 0.127457 1.68948 0.0767956C1.56602 0.0261345 1.43337 3.62396e-05 1.29936 3.62396e-05C1.16535 3.62396e-05 1.0327 0.0261345 0.90924 0.0767956C0.785778 0.127457 0.674006 0.201651 0.580522 0.294998C0.388193 0.486433 0.280519 0.74342 0.280519 1.01102C0.280519 1.27863 0.388193 1.53561 0.580522 1.72705L11.3256 12.4438L0.580522 23.1584C0.388853 23.3498 0.281596 23.6063 0.281596 23.8734C0.281596 24.1405 0.388853 24.397 0.580522 24.5883C0.674006 24.6817 0.785778 24.7559 0.90924 24.8065C1.0327 24.8572 1.16535 24.8833 1.29936 24.8833C1.43337 24.8833 1.56602 24.8572 1.68948 24.8065C1.81295 24.7559 1.92472 24.6817 2.0182 24.5883Z" fill="#414141"/>
</svg>
