<svg width="26" height="15" viewBox="0 0 26 15" fill="none" xmlns="http://www.w3.org/2000/svg">
<path d="M1.12844 2.65952L12.4249 13.9951C12.6234 14.1942 12.8895 14.3057 13.1666 14.3057C13.4436 14.3057 13.7098 14.1942 13.9082 13.9951L25.2089 2.65952C25.3015 2.56678 25.375 2.4559 25.4252 2.33342C25.4754 2.21094 25.5013 2.07934 25.5013 1.9464C25.5013 1.81346 25.4754 1.68186 25.4252 1.55938C25.375 1.4369 25.3015 1.32601 25.2089 1.23327C25.0192 1.04247 24.7644 0.935658 24.4992 0.935658C24.2339 0.935658 23.9792 1.04247 23.7894 1.23327L13.1666 11.893L2.54581 1.23327C2.35615 1.04313 2.10187 0.936726 1.83713 0.936726C1.57238 0.936726 1.3181 1.04313 1.12844 1.23327C1.03591 1.32601 0.962365 1.4369 0.912148 1.55938C0.861931 1.68186 0.83606 1.81346 0.83606 1.9464C0.83606 2.07934 0.861931 2.21094 0.912148 2.33342C0.962365 2.4559 1.03591 2.56678 1.12844 2.65952Z" fill="#414141"/>
</svg>
